<svg xmlns="http://www.w3.org/2000/svg" width="1124" height="80" viewBox="0 0 1124 80">
  <g transform="translate(0.5,0.5)" text-anchor="middle" font-size="14" font-family="sans-serif" font-weight="normal">
    <g transform="translate(4,21)">
      <g stroke="black" stroke-width="1" stroke-linecap="round">
        <line x2="1115"/>
        <line x2="1115" y1="55" y2="55"/>
        <line y2="55"/>
        <line x1="1115" x2="1115" y2="55"/>
        <line x1="1080" x2="1080" y2="6"/>
        <line x1="1080" x2="1080" y1="55" y2="49"/>
        <line x1="1045" x2="1045" y2="6"/>
        <line x1="1045" x2="1045" y1="55" y2="49"/>
        <line x1="1010" x2="1010" y2="6"/>
        <line x1="1010" x2="1010" y1="55" y2="49"/>
        <line x1="976" x2="976" y2="6"/>
        <line x1="976" x2="976" y1="55" y2="49"/>
        <line x1="941" x2="941" y2="6"/>
        <line x1="941" x2="941" y1="55" y2="49"/>
        <line x1="906" x2="906" y2="6"/>
        <line x1="906" x2="906" y1="55" y2="49"/>
        <line x1="871" x2="871" y2="6"/>
        <line x1="871" x2="871" y1="55" y2="49"/>
        <line x1="836" x2="836" y2="6"/>
        <line x1="836" x2="836" y1="55" y2="49"/>
        <line x1="801" x2="801" y2="6"/>
        <line x1="801" x2="801" y1="55" y2="49"/>
        <line x1="767" x2="767" y2="6"/>
        <line x1="767" x2="767" y1="55" y2="49"/>
        <line x1="732" x2="732" y2="6"/>
        <line x1="732" x2="732" y1="55" y2="49"/>
        <line x1="697" x2="697" y2="6"/>
        <line x1="697" x2="697" y1="55" y2="49"/>
        <line x1="662" x2="662" y2="6"/>
        <line x1="662" x2="662" y1="55" y2="49"/>
        <line x1="627" x2="627" y2="6"/>
        <line x1="627" x2="627" y1="55" y2="49"/>
        <line x1="592" x2="592" y2="6"/>
        <line x1="592" x2="592" y1="55" y2="49"/>
        <line x1="558" x2="558" y2="6"/>
        <line x1="558" x2="558" y1="55" y2="49"/>
        <line x1="523" x2="523" y2="6"/>
        <line x1="523" x2="523" y1="55" y2="49"/>
        <line x1="488" x2="488" y2="6"/>
        <line x1="488" x2="488" y1="55" y2="49"/>
        <line x1="453" x2="453" y2="6"/>
        <line x1="453" x2="453" y1="55" y2="49"/>
        <line x1="418" x2="418" y2="6"/>
        <line x1="418" x2="418" y1="55" y2="49"/>
        <line x1="383" x2="383" y2="6"/>
        <line x1="383" x2="383" y1="55" y2="49"/>
        <line x1="348" x2="348" y2="6"/>
        <line x1="348" x2="348" y1="55" y2="49"/>
        <line x1="314" x2="314" y2="6"/>
        <line x1="314" x2="314" y1="55" y2="49"/>
        <line x1="279" x2="279" y2="6"/>
        <line x1="279" x2="279" y1="55" y2="49"/>
        <line x1="244" x2="244" y2="6"/>
        <line x1="244" x2="244" y1="55" y2="49"/>
        <line x1="209" x2="209" y2="6"/>
        <line x1="209" x2="209" y1="55" y2="49"/>
        <line x1="174" x2="174" y2="6"/>
        <line x1="174" x2="174" y1="55" y2="49"/>
        <line x1="139" x2="139" y2="6"/>
        <line x1="139" x2="139" y1="55" y2="49"/>
        <line x1="105" x2="105" y2="6"/>
        <line x1="105" x2="105" y1="55" y2="49"/>
        <line x1="70" x2="70" y2="6"/>
        <line x1="70" x2="70" y1="55" y2="49"/>
        <line x1="35" x2="35" y2="6"/>
        <line x1="35" x2="35" y1="55" y2="49"/>
      </g>
      <g>
        <g/>
        <g transform="translate(17,-11)">
          <g transform="translate(1080)">
            <text y="6">0</text>
          </g>
          <g transform="translate(0)">
            <text y="6">31</text>
          </g>
        </g>
        <g transform="translate(17,27)">
          <g transform="translate(540)">
            <text y="6">
              <tspan>RESET_INDX</tspan>
            </text>
          </g>
        </g>
        <g transform="translate(17,63)"/>
      </g>
    </g>
  </g>
</svg>

